{"title":"Life with Mikey (1993) fiveofseven","uid":14756718,"size":633783977,"categoryP":"video","categoryS":"movies","magnet":"?xt=urn:btih:6fbe29a999af73b67936844488ab5962fb3a6795&amp;dn=Life+with+Mikey+%281993%29+fiveofseven&amp;tr=udp%3A%2F%2Ftracker.leechers-paradise.org%3A6969&amp;tr=udp%3A%2F%2Fzer0day.ch%3A1337&amp;tr=udp%3A%2F%2Fopen.demonii.com%3A1337&amp;tr=udp%3A%2F%2Ftracker.coppersurfer.tk%3A6969&amp;tr=udp%3A%2F%2Fexodus.desync.com%3A6969","seeders":1,"leechers":0,"uploader":"fiveofseven","files":3,"time":1464823594,"description":"\n\r\nPLOT - Michael Chapman was once a child TV star. But when he grew up, \r\nhe couldn't get work. So he and his brother, Ed start their own \r\ntalent agency that specializes in child acts. They can't seem \r\nto find the next big thing and they have to deal with another \r\nagency who's not above bribery to get the kids to sign with them. \r\nOne day Michael meets a girl named Angie and she's a real spitfire. \r\nMichael thinks she could what they are looking for. \r\nProblem is that she has a big chip on her shoulder.\r\n\r\n\r\nINFO\r\n\r\nEncoder: fiveofseven\r\nSource: Blu-Ray\r\nRating: PG\r\nGenre: Comedy, Family\r\nSubtitles: English\r\nPoster: \r  https://yuq.me/users/25/564/H5jqhuIPBp.jpg \r\n\r\nGeneral\r\nComplete name                            : Life With Mikey (fiveofseven).mp4\r\nFormat                                   : MPEG-4\r\nFormat profile                           : Base Media\r\nCodec ID                                 : isom\r\nFile size                                : 600 MiB\r\nDuration                                 : 1h 31mn\r\nOverall bit rate mode                    : Variable\r\nOverall bit rate                         : 918 Kbps\r\nEncoded date                             : UTC 2016-05-04 10:09:20\r\nTagged date                              : UTC 2016-05-05 14:58:48\r\nWriting application                      : My MP4Box GUI 0.6.0.6 &lt;http://my-mp4box-gui.zymichost.com&gt;\r\n\r\nVideo\r\nID                                       : 1\r\nFormat                                   : AVC\r\nFormat/Info                              : Advanced Video Codec\r\nFormat profile                           :   \r\nFormat settings, CABAC                   : Yes\r\nFormat settings, ReFrames                : 7 frames\r\nCodec ID                                 : avc1\r\nCodec ID/Info                            : Advanced Video Coding\r\nDuration                                 : 1h 31mn\r\nBit rate                                 : 786 Kbps\r\nMaximum bit rate                         : 2 254 Kbps\r\nWidth                                    : 720 pixels\r\nHeight                                   : 400 pixels\r\nDisplay aspect ratio                     : 16:9\r\nFrame rate mode                          : Constant\r\nFrame rate                               : 23.976 fps\r\nColor space                              : YUV\r\nChroma subsampling                       : 4:2:0\r\nBit depth                                : 8 bits\r\nScan type                                : Progressive\r\nBits/(Pixel*Frame)                       : 0.114\r\nStream size                              : 514 MiB (86%)\r\nTitle                                    : LWM 480p.mp4\r\nWriting library                          : x264 core 146 r2538 121396c\r\nLanguage                                 : English\r\nEncoded date                             : UTC 2016-05-04 08:13:34\r\nTagged date                              : UTC 2016-05-04 10:09:39\r\n\r\nAudio\r\nID                                       : 2\r\nFormat                                   : AAC\r\nFormat/Info                              : Advanced Audio Codec\r\nFormat profile                           : LC\r\nCodec ID                                 : 40\r\nDuration                                 : 1h 31mn\r\nBit rate mode                            : Variable\r\nBit rate                                 : 128 Kbps\r\nMaximum bit rate                         : 132 Kbps\r\nChannel count                            : 2 channels\r\nChannel positions                        : Front: L R\r\nSampling rate                            : 48.0 KHz\r\nCompression mode                         : Lossy\r\nStream size                              : 83.7 MiB (14%)\r\nTitle                                    : aac.mp4\r\nLanguage                                 : English\r\nEncoded date                             : UTC 2016-05-04 10:09:35\r\nTagged date                              : UTC 2016-05-04 10:09:39\r\n\r\n\r\nScreenshots - \r\n  \nhttps://yuq.me/users/25/564/hNeSk7GPQ8.png \r\n  \nhttps://yuq.me/users/25/564/EWAiKpITZ7.png \r\n  \nhttps://yuq.me/users/25/564/5xIYUsw7ju.png \r\n  \nhttps://yuq.me/users/25/564/CpyrUdo853.png \r\n \r\nsignature \r\n  \nhttps://yuq.me/users/25/564/aegRQCBILx.png","torrent":{"xt":"urn:btih:6fbe29a999af73b67936844488ab5962fb3a6795","amp;dn":"Life+with+Mikey+%281993%29+fiveofseven","amp;tr":["udp%3A%2F%2Ftracker.leechers-paradise.org%3A6969","udp%3A%2F%2Fzer0day.ch%3A1337","udp%3A%2F%2Fopen.demonii.com%3A1337","udp%3A%2F%2Ftracker.coppersurfer.tk%3A6969","udp%3A%2F%2Fexodus.desync.com%3A6969"],"infoHash":"6fbe29a999af73b67936844488ab5962fb3a6795","infoHashBuffer":{"type":"Buffer","data":[111,190,41,169,153,175,115,182,121,54,132,68,136,171,89,98,251,58,103,149]},"announce":[],"urlList":[]}}